# xmcd CD database file generated by Grip 2.99.0
# 
# Track frame offsets:
#       150
#       16100
#       34200
#       52950
#       69987
#       87132
#       100002
#       125165
#       144720
#       164780
#       177997
#       194517
#       217602
#       232095
# 
# Disc length: 3529 seconds
# 
# Revision: 5
# Processed by: cddbd v1.4PL0 Copyright (c) Steve Scherf et al.
# Submitted via: Grip 2.99.0
# 
DISCID=c20dc70e
DTITLE=The Robert Cray Band - Heavy Picks - The Robert Cray Band Collection
DYEAR=1999
DGENRE=Blues
TTITLE0=Phone Booth
TTITLE1=Forecast (Calls For Pain)
TTITLE2=Smoking Gun
TTITLE3=Playin' In The Dirt
TTITLE4=Don't Be Afraid Of The Dark
TTITLE5=Too Many Cooks
TTITLE6=The Dream
TTITLE7=Right Next Door (Because Of Me)
TTITLE8=Consequences
TTITLE9=Bad Influence
TTITLE10=I Guess I Showed Her
TTITLE11=I Shiver
TTITLE12=Trick or Treat
TTITLE13=I Was Warned
EXTD=
EXTT0=
EXTT1=
EXTT2=
EXTT3=
EXTT4=
EXTT5=
EXTT6=
EXTT7=
EXTT8=
EXTT9=
EXTT10=
EXTT11=
EXTT12=
EXTT13=
PLAYORDER=
